<svg width="355" height="60" viewBox="0 0 355 60" fill="none" xmlns="http://www.w3.org/2000/svg">
  <path d="M0 15C0 7 7 0 15 0H45C53 0 60 7 60 15V45C60 53 53 60 45 60H15C7 60 0 53 0 45V15Z" fill="#465FFF"/>
  
  <g>
    <path d="M15 15C15 13 16.5 11.5 18.5 11.5C20.5 11.5 22 13 22 15V45C22 47 20.5 48.5 18.5 48.5C16.5 48.5 15 47 15 45V15Z" fill="white"/>
  </g>
  <g>
    <path d="M28 25C28 23 29.5 21.5 31.5 21.5C33.5 21.5 35 23 35 25V45C35 47 33.5 48.5 31.5 48.5C29.5 48.5 28 47 28 45V25Z" fill="white" fill-opacity="0.9"/>
  </g>
  <g>
    <path d="M42 18C42 16 43.5 14.5 45.5 14.5C47.5 14.5 49 16 49 18V45C49 47 47.5 48.5 45.5 48.5C43.5 48.5 42 47 42 45V18Z" fill="white" fill-opacity="0.7"/>
  </g>
  
  <!-- Larger Text -->
  <text x="75" y="42" font-family="Inter, sans-serif" font-size="36" fill="#101828" font-weight="600">
    CCM Dashboard
  </text>
</svg>
